<mxfile host="app.diagrams.net" modified="2024-02-23T23:03:58.269Z" agent="Mozilla/5.0 (Windows NT 10.0; Win64; x64; rv:123.0) Gecko/20100101 Firefox/123.0" version="23.1.3" etag="bROvcTvAkadO4dvwcrOI" type="github">
  <diagram name="Page-1" id="v1HasQMVpEPqiUO41tsv">
    <mxGraphModel>
      <root>
        <mxCell id="0" />
        <mxCell id="1" parent="0" />
      </root>
    </mxGraphModel>
  </diagram>
</mxfile>
